<mxfile host="app.diagrams.net" modified="2024-06-28T08:42:24.436Z" agent="Mozilla/5.0 (Windows NT 10.0; Win64; x64) AppleWebKit/537.36 (KHTML, like Gecko) Chrome/125.0.0.0 Safari/537.36 OPR/111.0.0.0 (Edition Yx 05)" etag="Zm1_dtMTq-PWCz_LdUDj" version="24.6.4" type="device">
  <diagram name="Страница — 1" id="qMh_OtaIXDiIShBN9T_I">
    <mxGraphModel dx="1048" dy="566" grid="1" gridSize="10" guides="1" tooltips="1" connect="1" arrows="1" fold="1" page="1" pageScale="1" pageWidth="827" pageHeight="1169" math="0" shadow="0">
      <root>
        <mxCell id="0" />
        <mxCell id="1" parent="0" />
        <mxCell id="hLhfHIGvYOweFpvV7nnv-25" style="edgeStyle=orthogonalEdgeStyle;rounded=0;orthogonalLoop=1;jettySize=auto;html=1;entryX=0.5;entryY=0;entryDx=0;entryDy=0;" edge="1" parent="1" source="hLhfHIGvYOweFpvV7nnv-6" target="hLhfHIGvYOweFpvV7nnv-14">
          <mxGeometry relative="1" as="geometry" />
        </mxCell>
        <mxCell id="hLhfHIGvYOweFpvV7nnv-6" value="Controller" style="swimlane;fontStyle=0;childLayout=stackLayout;horizontal=1;startSize=30;horizontalStack=0;resizeParent=1;resizeParentMax=0;resizeLast=0;collapsible=1;marginBottom=0;whiteSpace=wrap;html=1;" vertex="1" parent="1">
          <mxGeometry x="70" y="120" width="140" height="90" as="geometry" />
        </mxCell>
        <mxCell id="hLhfHIGvYOweFpvV7nnv-7" value="startGame(): void" style="text;strokeColor=none;fillColor=none;align=left;verticalAlign=middle;spacingLeft=4;spacingRight=4;overflow=hidden;points=[[0,0.5],[1,0.5]];portConstraint=eastwest;rotatable=0;whiteSpace=wrap;html=1;" vertex="1" parent="hLhfHIGvYOweFpvV7nnv-6">
          <mxGeometry y="30" width="140" height="30" as="geometry" />
        </mxCell>
        <mxCell id="hLhfHIGvYOweFpvV7nnv-8" value="onClick(): void" style="text;strokeColor=none;fillColor=none;align=left;verticalAlign=middle;spacingLeft=4;spacingRight=4;overflow=hidden;points=[[0,0.5],[1,0.5]];portConstraint=eastwest;rotatable=0;whiteSpace=wrap;html=1;" vertex="1" parent="hLhfHIGvYOweFpvV7nnv-6">
          <mxGeometry y="60" width="140" height="30" as="geometry" />
        </mxCell>
        <mxCell id="hLhfHIGvYOweFpvV7nnv-9" value="&lt;div&gt;&lt;br&gt;&lt;/div&gt;" style="text;strokeColor=none;fillColor=none;align=left;verticalAlign=middle;spacingLeft=4;spacingRight=4;overflow=hidden;points=[[0,0.5],[1,0.5]];portConstraint=eastwest;rotatable=0;whiteSpace=wrap;html=1;" vertex="1" parent="hLhfHIGvYOweFpvV7nnv-6">
          <mxGeometry y="90" width="140" as="geometry" />
        </mxCell>
        <mxCell id="hLhfHIGvYOweFpvV7nnv-24" style="edgeStyle=orthogonalEdgeStyle;rounded=0;orthogonalLoop=1;jettySize=auto;html=1;entryX=0.5;entryY=0;entryDx=0;entryDy=0;" edge="1" parent="1" source="hLhfHIGvYOweFpvV7nnv-10" target="hLhfHIGvYOweFpvV7nnv-14">
          <mxGeometry relative="1" as="geometry" />
        </mxCell>
        <mxCell id="hLhfHIGvYOweFpvV7nnv-26" style="edgeStyle=orthogonalEdgeStyle;rounded=0;orthogonalLoop=1;jettySize=auto;html=1;entryX=0;entryY=0.5;entryDx=0;entryDy=0;startArrow=classic;startFill=1;" edge="1" parent="1" source="hLhfHIGvYOweFpvV7nnv-10" target="hLhfHIGvYOweFpvV7nnv-9">
          <mxGeometry relative="1" as="geometry" />
        </mxCell>
        <mxCell id="hLhfHIGvYOweFpvV7nnv-28" style="edgeStyle=orthogonalEdgeStyle;rounded=0;orthogonalLoop=1;jettySize=auto;html=1;entryX=0;entryY=0.5;entryDx=0;entryDy=0;dashed=1;endArrow=open;endFill=0;" edge="1" parent="1" source="hLhfHIGvYOweFpvV7nnv-10" target="hLhfHIGvYOweFpvV7nnv-21">
          <mxGeometry relative="1" as="geometry" />
        </mxCell>
        <mxCell id="hLhfHIGvYOweFpvV7nnv-10" value="View" style="swimlane;fontStyle=0;childLayout=stackLayout;horizontal=1;startSize=30;horizontalStack=0;resizeParent=1;resizeParentMax=0;resizeLast=0;collapsible=1;marginBottom=0;whiteSpace=wrap;html=1;" vertex="1" parent="1">
          <mxGeometry x="70" y="290" width="140" height="120" as="geometry" />
        </mxCell>
        <mxCell id="hLhfHIGvYOweFpvV7nnv-11" value="Update(): void" style="text;strokeColor=none;fillColor=none;align=left;verticalAlign=middle;spacingLeft=4;spacingRight=4;overflow=hidden;points=[[0,0.5],[1,0.5]];portConstraint=eastwest;rotatable=0;whiteSpace=wrap;html=1;" vertex="1" parent="hLhfHIGvYOweFpvV7nnv-10">
          <mxGeometry y="30" width="140" height="30" as="geometry" />
        </mxCell>
        <mxCell id="hLhfHIGvYOweFpvV7nnv-12" value="createGrid(): void" style="text;strokeColor=none;fillColor=none;align=left;verticalAlign=middle;spacingLeft=4;spacingRight=4;overflow=hidden;points=[[0,0.5],[1,0.5]];portConstraint=eastwest;rotatable=0;whiteSpace=wrap;html=1;" vertex="1" parent="hLhfHIGvYOweFpvV7nnv-10">
          <mxGeometry y="60" width="140" height="30" as="geometry" />
        </mxCell>
        <mxCell id="hLhfHIGvYOweFpvV7nnv-13" value="showWin(): void" style="text;strokeColor=none;fillColor=none;align=left;verticalAlign=middle;spacingLeft=4;spacingRight=4;overflow=hidden;points=[[0,0.5],[1,0.5]];portConstraint=eastwest;rotatable=0;whiteSpace=wrap;html=1;" vertex="1" parent="hLhfHIGvYOweFpvV7nnv-10">
          <mxGeometry y="90" width="140" height="30" as="geometry" />
        </mxCell>
        <mxCell id="hLhfHIGvYOweFpvV7nnv-27" style="edgeStyle=orthogonalEdgeStyle;rounded=0;orthogonalLoop=1;jettySize=auto;html=1;entryX=0.5;entryY=0;entryDx=0;entryDy=0;startArrow=diamondThin;startFill=1;" edge="1" parent="1" source="hLhfHIGvYOweFpvV7nnv-14" target="hLhfHIGvYOweFpvV7nnv-18">
          <mxGeometry relative="1" as="geometry" />
        </mxCell>
        <mxCell id="hLhfHIGvYOweFpvV7nnv-14" value="Model" style="swimlane;fontStyle=0;childLayout=stackLayout;horizontal=1;startSize=30;horizontalStack=0;resizeParent=1;resizeParentMax=0;resizeLast=0;collapsible=1;marginBottom=0;whiteSpace=wrap;html=1;swimlaneLine=1;rounded=0;glass=0;shadow=0;" vertex="1" parent="1">
          <mxGeometry x="310" y="200" width="170" height="180" as="geometry" />
        </mxCell>
        <mxCell id="hLhfHIGvYOweFpvV7nnv-15" value="currentPlayer: bool" style="text;strokeColor=none;fillColor=none;align=left;verticalAlign=middle;spacingLeft=4;spacingRight=4;overflow=hidden;points=[[0,0.5],[1,0.5]];portConstraint=eastwest;rotatable=0;whiteSpace=wrap;html=1;" vertex="1" parent="hLhfHIGvYOweFpvV7nnv-14">
          <mxGeometry y="30" width="170" height="30" as="geometry" />
        </mxCell>
        <mxCell id="hLhfHIGvYOweFpvV7nnv-16" value="isWin(): bool" style="text;strokeColor=none;fillColor=none;align=left;verticalAlign=middle;spacingLeft=4;spacingRight=4;overflow=hidden;points=[[0,0.5],[1,0.5]];portConstraint=eastwest;rotatable=0;whiteSpace=wrap;html=1;" vertex="1" parent="hLhfHIGvYOweFpvV7nnv-14">
          <mxGeometry y="60" width="170" height="30" as="geometry" />
        </mxCell>
        <mxCell id="hLhfHIGvYOweFpvV7nnv-17" value="markCell(): void&lt;br&gt;&lt;br&gt;restart(): void&lt;div&gt;&lt;br&gt;getCell(): Cell&lt;/div&gt;" style="text;strokeColor=none;fillColor=none;align=left;verticalAlign=middle;spacingLeft=4;spacingRight=4;overflow=hidden;points=[[0,0.5],[1,0.5]];portConstraint=eastwest;rotatable=0;whiteSpace=wrap;html=1;" vertex="1" parent="hLhfHIGvYOweFpvV7nnv-14">
          <mxGeometry y="90" width="170" height="90" as="geometry" />
        </mxCell>
        <mxCell id="hLhfHIGvYOweFpvV7nnv-18" value="Cell" style="swimlane;fontStyle=0;childLayout=stackLayout;horizontal=1;startSize=30;horizontalStack=0;resizeParent=1;resizeParentMax=0;resizeLast=0;collapsible=1;marginBottom=0;whiteSpace=wrap;html=1;" vertex="1" parent="1">
          <mxGeometry x="325" y="450" width="140" height="150" as="geometry" />
        </mxCell>
        <mxCell id="hLhfHIGvYOweFpvV7nnv-19" value="row: int" style="text;strokeColor=none;fillColor=none;align=left;verticalAlign=middle;spacingLeft=4;spacingRight=4;overflow=hidden;points=[[0,0.5],[1,0.5]];portConstraint=eastwest;rotatable=0;whiteSpace=wrap;html=1;" vertex="1" parent="hLhfHIGvYOweFpvV7nnv-18">
          <mxGeometry y="30" width="140" height="30" as="geometry" />
        </mxCell>
        <mxCell id="hLhfHIGvYOweFpvV7nnv-20" value="column: int" style="text;strokeColor=none;fillColor=none;align=left;verticalAlign=middle;spacingLeft=4;spacingRight=4;overflow=hidden;points=[[0,0.5],[1,0.5]];portConstraint=eastwest;rotatable=0;whiteSpace=wrap;html=1;" vertex="1" parent="hLhfHIGvYOweFpvV7nnv-18">
          <mxGeometry y="60" width="140" height="30" as="geometry" />
        </mxCell>
        <mxCell id="hLhfHIGvYOweFpvV7nnv-21" value="playerMark: bool&lt;div&gt;&lt;br&gt;mark(): void&lt;/div&gt;" style="text;strokeColor=none;fillColor=none;align=left;verticalAlign=middle;spacingLeft=4;spacingRight=4;overflow=hidden;points=[[0,0.5],[1,0.5]];portConstraint=eastwest;rotatable=0;whiteSpace=wrap;html=1;" vertex="1" parent="hLhfHIGvYOweFpvV7nnv-18">
          <mxGeometry y="90" width="140" height="60" as="geometry" />
        </mxCell>
      </root>
    </mxGraphModel>
  </diagram>
</mxfile>
